# xmcd
#
# Track frame offsets:
#	150
#	16677
#	33027
#	47370
#	62125
#	73820
#	86425
#	100407
#	115580
#	131662
#	150812
#	168995
#
# Disc length: 2439 seconds
# Revision: 0
# Processed by: cddbd v1.5.2PL0 Copyright (c) Steve Scherf et al.
# Submitted via: dBpowerAMP V12.0
#
DISCID=8509850c
DTITLE=Jacky Jack White With The Carter Sisters - Southern Songbook
DYEAR=1996
DGENRE=Country
TTITLE0=Old Son
TTITLE1=Caney Ridge
TTITLE2=If I Didn't Love You
TTITLE3=Mary's Heart, Martha's Hand
TTITLE4=White Picket Fence
TTITLE5=For Today
TTITLE6=Don't Rize Above Your Razin'
TTITLE7=Miss Meridian
TTITLE8=Whistle Down The Wind
TTITLE9=Picture of Jesus
TTITLE10=On That Cloud up Ahead
TTITLE11=Southern Heart
EXTD=
EXTT0=
EXTT1=
EXTT2=
EXTT3=
EXTT4=
EXTT5=
EXTT6=
EXTT7=
EXTT8=
EXTT9=
EXTT10=
EXTT11=
PLAYORDER=
